<svg width="235" height="101" viewBox="0 0 235 101" fill="none" xmlns="http://www.w3.org/2000/svg">
<path d="M16.335 55.195H12.87C12.36 55.195 11.955 55 11.655 54.61C11.385 54.19 11.25 53.635 11.25 52.945C11.25 51.415 11.88 50.65 13.14 50.65H18.405C19.515 50.65 20.295 50.335 20.745 49.705C21.195 49.075 21.42 48.385 21.42 47.635V41.83C21.42 41.08 21.195 40.39 20.745 39.76C20.295 39.13 19.515 38.815 18.405 38.815H8.91V68.155C8.91 69.595 8.025 70.315 6.255 70.315C4.485 70.315 3.6 69.595 3.6 68.155V36.97C3.6 35.89 3.87 35.17 4.41 34.81C4.98 34.45 5.655 34.27 6.435 34.27H19.53C20.31 34.27 21.12 34.435 21.96 34.765C22.8 35.095 23.61 35.515 24.39 36.025H24.345C25.125 36.595 25.725 37.345 26.145 38.275C26.565 39.175 26.775 40.225 26.775 41.425V47.995C26.775 50.425 25.965 52.24 24.345 53.44C24.015 53.68 23.655 53.905 23.265 54.115C22.905 54.325 22.53 54.535 22.14 54.745L29.34 66.625C29.43 66.775 29.52 66.97 29.61 67.21C29.7 67.45 29.745 67.645 29.745 67.795C29.745 68.515 29.235 69.205 28.215 69.865V69.82C27.525 70.24 26.94 70.45 26.46 70.45C25.77 70.45 25.215 70.105 24.795 69.415L24.84 69.46L16.335 55.195ZM40.3123 70C39.3823 70 38.4973 69.88 37.6573 69.64C36.8173 69.37 36.0073 68.995 35.2273 68.515V68.56C33.7573 67.63 33.0223 65.92 33.0223 63.43V61.225C33.0223 59.995 33.2323 58.93 33.6523 58.03C34.1023 57.1 34.7173 56.365 35.4973 55.825H35.4523C36.2023 55.315 36.9973 54.94 37.8373 54.7C38.6773 54.43 39.4873 54.295 40.2673 54.295H50.2123V50.11C50.2123 49.36 49.9723 48.685 49.4923 48.085C49.0423 47.455 48.2623 47.14 47.1523 47.14H41.8873C40.7473 47.14 39.9523 47.425 39.5023 47.995C39.0823 48.535 38.8723 49.18 38.8723 49.93V50.29C38.8723 51.85 38.0323 52.63 36.3523 52.63C34.6723 52.63 33.8323 51.85 33.8323 50.29V49.885C33.8323 48.655 34.0423 47.62 34.4623 46.78C34.9123 45.94 35.5123 45.235 36.2623 44.665H36.2173C36.9973 44.155 37.8073 43.735 38.6473 43.405C39.5173 43.075 40.3423 42.91 41.1223 42.91H47.9623C48.7123 42.91 49.5073 43.075 50.3473 43.405C51.2173 43.735 52.0273 44.155 52.7773 44.665H52.7323C53.5123 45.235 54.1123 45.985 54.5323 46.915C54.9523 47.815 55.1623 48.865 55.1623 50.065V68.11C55.1623 69.55 54.3373 70.27 52.6873 70.27C52.3573 70.27 52.0423 70.255 51.7423 70.225C51.4723 70.195 51.2173 70.12 50.9773 70C50.7673 69.85 50.5873 69.655 50.4373 69.415C50.3173 69.145 50.2573 68.8 50.2573 68.38L50.2123 58.525H41.1223C40.4623 58.525 39.9523 58.6 39.5923 58.75C39.2323 58.9 38.9473 59.14 38.7373 59.47C38.4973 59.98 38.3173 60.385 38.1973 60.685C38.1073 60.955 38.0623 61.27 38.0623 61.63V63.385C38.0623 64.165 38.2873 64.765 38.7373 65.185C39.2173 65.575 40.0273 65.77 41.1673 65.77H46.2073C47.3173 65.77 47.8723 66.475 47.8723 67.885C47.8723 68.485 47.7373 68.995 47.4673 69.415C47.1973 69.805 46.7773 70 46.2073 70H40.3123ZM60.6681 47.14C59.5881 47.14 59.0181 46.435 58.9581 45.025C58.9581 43.615 59.5281 42.91 60.6681 42.91H76.2831C77.2431 42.91 77.9931 43.075 78.5331 43.405C79.1031 43.705 79.4181 44.125 79.4781 44.665C79.5081 45.145 79.4931 45.625 79.4331 46.105C79.4031 46.585 79.2981 46.945 79.1181 47.185L65.3031 65.77H78.0381C79.1181 65.77 79.6581 66.475 79.6581 67.885C79.7181 68.605 79.5981 69.145 79.2981 69.505C78.9981 69.835 78.5781 70 78.0381 70H61.8831C59.9331 70 58.8831 69.43 58.7331 68.29C58.6431 67.24 58.7481 66.385 59.0481 65.725L72.9081 47.14H60.6681ZM88.4331 62.8C88.4331 63.52 88.6581 64.195 89.1081 64.825C89.5881 65.455 90.3831 65.77 91.4931 65.77H97.1181C98.2281 65.77 99.0081 65.5 99.4581 64.96C99.9381 64.39 100.178 63.745 100.178 63.025V62.53C100.178 61.12 101.003 60.415 102.653 60.415C104.303 60.415 105.128 61.12 105.128 62.53V63.07C105.128 64.33 104.918 65.365 104.498 66.175C104.108 66.985 103.508 67.69 102.698 68.29C101.108 69.43 99.5181 70 97.9281 70H90.3681C88.7781 70 87.2331 69.43 85.7331 68.29C85.0131 67.69 84.4581 66.94 84.0681 66.04C83.6781 65.11 83.4831 64.045 83.4831 62.845V50.02C83.4831 47.59 84.2331 45.79 85.7331 44.62C86.4831 44.08 87.2481 43.66 88.0281 43.36C88.8381 43.03 89.6181 42.865 90.3681 42.865H97.9281C98.6481 42.865 99.4431 43.015 100.313 43.315C101.183 43.585 101.993 43.96 102.743 44.44C103.463 44.95 104.033 45.655 104.453 46.555C104.903 47.455 105.128 48.52 105.128 49.75V55.825C105.128 56.515 104.918 57.13 104.498 57.67C104.108 58.21 103.373 58.48 102.293 58.48H92.5731C91.4931 58.48 90.9231 57.775 90.8631 56.365C90.8631 54.955 91.4331 54.25 92.5731 54.25H100.223L100.178 50.065C100.178 49.315 99.9381 48.64 99.4581 48.04C99.0081 47.41 98.2281 47.095 97.1181 47.095H91.4931C90.3831 47.095 89.5881 47.41 89.1081 48.04C88.6581 48.64 88.4331 49.315 88.4331 50.065V62.8ZM115.811 68.11C115.811 69.55 114.986 70.27 113.336 70.27C111.686 70.27 110.861 69.55 110.861 68.11V50.02C110.861 48.79 111.056 47.725 111.446 46.825C111.836 45.925 112.451 45.19 113.291 44.62C114.881 43.48 116.471 42.91 118.061 42.91H125.306C126.836 42.91 128.426 43.48 130.076 44.62C131.696 45.76 132.506 47.56 132.506 50.02V68.11C132.506 69.55 131.681 70.27 130.031 70.27C128.381 70.27 127.556 69.55 127.556 68.11V50.425C127.556 49.645 127.316 48.895 126.836 48.175L126.881 48.22C126.491 47.5 125.696 47.14 124.496 47.14H118.871C117.641 47.14 116.831 47.5 116.441 48.22C116.021 48.85 115.811 49.585 115.811 50.425V68.11ZM166.317 34.045C167.277 34.045 168.327 34.27 169.467 34.72C170.517 35.14 171.042 35.935 171.042 37.105V68.11C171.042 69.55 170.157 70.27 168.387 70.27C166.617 70.27 165.732 69.55 165.732 68.11V44.98L164.427 44.845L162.627 50.695L157.227 68.695C156.897 69.745 156.087 70.255 154.797 70.225C154.227 70.195 153.732 70.045 153.312 69.775C152.892 69.505 152.607 69.115 152.457 68.605L149.217 58.12C148.557 56.05 147.897 53.95 147.237 51.82C146.577 49.66 145.857 47.275 145.077 44.665L143.772 44.845V68.11C143.772 69.55 142.887 70.27 141.117 70.27C139.347 70.27 138.462 69.55 138.462 68.11V37.105C138.462 35.965 138.987 35.17 140.037 34.72C141.147 34.27 142.212 34.06 143.232 34.09C143.682 34.09 144.147 34.15 144.627 34.27C145.107 34.39 145.557 34.57 145.977 34.81C146.397 35.02 146.772 35.305 147.102 35.665C147.432 35.995 147.687 36.385 147.867 36.835L154.932 60.91C155.442 59.14 155.982 57.22 156.552 55.15C157.122 53.08 157.707 50.98 158.307 48.85C158.907 46.72 159.492 44.62 160.062 42.55C160.662 40.45 161.217 38.5 161.727 36.7C161.907 36.28 162.162 35.905 162.492 35.575C162.822 35.245 163.197 34.975 163.617 34.765C164.037 34.525 164.472 34.345 164.922 34.225C165.402 34.105 165.867 34.045 166.317 34.045ZM183.794 70C182.864 70 181.979 69.88 181.139 69.64C180.299 69.37 179.489 68.995 178.709 68.515V68.56C177.239 67.63 176.504 65.92 176.504 63.43V61.225C176.504 59.995 176.714 58.93 177.134 58.03C177.584 57.1 178.199 56.365 178.979 55.825H178.934C179.684 55.315 180.479 54.94 181.319 54.7C182.159 54.43 182.969 54.295 183.749 54.295H193.694V50.11C193.694 49.36 193.454 48.685 192.974 48.085C192.524 47.455 191.744 47.14 190.634 47.14H185.369C184.229 47.14 183.434 47.425 182.984 47.995C182.564 48.535 182.354 49.18 182.354 49.93V50.29C182.354 51.85 181.514 52.63 179.834 52.63C178.154 52.63 177.314 51.85 177.314 50.29V49.885C177.314 48.655 177.524 47.62 177.944 46.78C178.394 45.94 178.994 45.235 179.744 44.665H179.699C180.479 44.155 181.289 43.735 182.129 43.405C182.999 43.075 183.824 42.91 184.604 42.91H191.444C192.194 42.91 192.989 43.075 193.829 43.405C194.699 43.735 195.509 44.155 196.259 44.665H196.214C196.994 45.235 197.594 45.985 198.014 46.915C198.434 47.815 198.644 48.865 198.644 50.065V68.11C198.644 69.55 197.819 70.27 196.169 70.27C195.839 70.27 195.524 70.255 195.224 70.225C194.954 70.195 194.699 70.12 194.459 70C194.249 69.85 194.069 69.655 193.919 69.415C193.799 69.145 193.739 68.8 193.739 68.38L193.694 58.525H184.604C183.944 58.525 183.434 58.6 183.074 58.75C182.714 58.9 182.429 59.14 182.219 59.47C181.979 59.98 181.799 60.385 181.679 60.685C181.589 60.955 181.544 61.27 181.544 61.63V63.385C181.544 64.165 181.769 64.765 182.219 65.185C182.699 65.575 183.509 65.77 184.649 65.77H189.689C190.799 65.77 191.354 66.475 191.354 67.885C191.354 68.485 191.219 68.995 190.949 69.415C190.679 69.805 190.259 70 189.689 70H183.794ZM209.325 68.11C209.325 69.55 208.5 70.27 206.85 70.27C205.14 70.27 204.285 69.55 204.285 68.11V49.48C204.285 47.02 205.02 45.31 206.49 44.35C207.96 43.39 209.655 42.91 211.575 42.91H216.705C217.815 42.91 218.37 43.615 218.37 45.025C218.43 46.435 217.875 47.14 216.705 47.14H211.935C210.855 47.14 210.15 47.35 209.82 47.77C209.49 48.19 209.325 48.775 209.325 49.525V68.11ZM228.069 47.14V63.52C228.069 64.3 228.234 64.9 228.564 65.32C228.894 65.74 229.599 65.95 230.679 65.95H231.849C233.019 65.95 233.574 66.64 233.514 68.02C233.514 69.43 232.959 70.135 231.849 70.135H230.364C229.404 70.135 228.504 70.015 227.664 69.775C226.824 69.505 226.014 69.13 225.234 68.65V68.695C223.764 67.735 223.029 66.025 223.029 63.565V47.14H221.274C220.194 47.14 219.624 46.435 219.564 45.025C219.564 43.615 220.134 42.91 221.274 42.91H223.029V38.095C223.029 36.655 223.884 35.935 225.594 35.935C227.244 35.935 228.069 36.655 228.069 38.095V42.91H231.804C232.974 42.91 233.529 43.615 233.469 45.025C233.469 46.435 232.914 47.14 231.804 47.14H228.069Z" fill="white"/>
<rect x="13" y="83" width="209" height="18" fill="white"/>
<rect width="235" height="18" fill="white"/>
</svg>
